# xmcd CD database file
#
# Track frame offsets:
#	150
#	21584
#	33293
#	55032
#	68708
#	87577
#	104921
#	128978
#	145251
#	164016
#	181501
#	199105
#	217331
#	237217
#	251344
#	270889
#	285179
#	296920
#	313035
#
# Disc length: 4356 seconds
#
# Revision: 2
# Processed by: cddbd v1.5.2PL0 Copyright (c) Steve Scherf et al.
# Submitted via: CDex 1.51
#
DISCID=21110213
DTITLE=Various Artist - Polskie Trucker Country
DYEAR=1900
DGENRE=Country
TTITLE0=CEZARY MAKIEWICZ - Wszystkie drogi prowadza do Mragowa
TTITLE1=TAXWAY - Przed polnoca bede w domu
TTITLE2=HARVEST TIME - Z miasta do miasta
TTITLE3=HOGOKA BAND - Dobra stara milosc
TTITLE4=COLORADO - Zyj tak jak chcesz
TTITLE5=JOHNIE WALKER'S BAND - Wczorajszy dzien
TTITLE6=COLORADO - O co biega, co jest grane
TTITLE7=COUNTRY FIVE - Kolejny dzien w trasie
TTITLE8=TOMASZ SZWED and FULL SERVICE - Ciagnik siodlowy kamaz "GODFATHER-1"
TTITLE9=JERZY KACZANOWSKI and FULL SERVICE - Nie bierz kursow na wschod
TTITLE10=KATARZYNA SZUBARTOWSKA and FULL SERVICE - Cala noc ode mnie
TTITLE11=PAWEL BACZKOWSKI and SUPER BAND - Jade na slask
TTITLE12=ZIGI BAND - Dziewczyna truckera
TTITLE13=COACH - Damy mego serca
TTITLE14=FAIR PLAY - Country girl
TTITLE15=LONSTAR - Osiemnascie kol
TTITLE16=JANUSZ REWINSKI - Moj nowy star
TTITLE17=TOMASZ SZWED and FULL SERVICE - Zmiennik
TTITLE18=TEXWAY - Nasza wolna sobota
EXTD=
EXTT0=
EXTT1=
EXTT2=
EXTT3=
EXTT4=
EXTT5=
EXTT6=
EXTT7=
EXTT8=
EXTT9=
EXTT10=
EXTT11=
EXTT12=
EXTT13=
EXTT14=
EXTT15=
EXTT16=
EXTT17=
EXTT18=
PLAYORDER=
